<svg xmlns="http://www.w3.org/2000/svg" viewBox="0 0 1200 760" role="img" aria-labelledby="title desc">
  <title id="title">Armoured vehicle visual</title>
  <desc id="desc">A dark studio illustration of an armoured vehicle platform.</desc>
  <defs>
    <linearGradient id="bg" x1="0" x2="1" y1="0" y2="1">
      <stop offset="0" stop-color="#111827"/>
      <stop offset="0.48" stop-color="#1f2937"/>
      <stop offset="1" stop-color="#080808"/>
    </linearGradient>
    <linearGradient id="body" x1="0" x2="1">
      <stop offset="0" stop-color="#5b6470"/>
      <stop offset="0.45" stop-color="#d6d9dc"/>
      <stop offset="1" stop-color="#374151"/>
    </linearGradient>
    <radialGradient id="glow" cx="64%" cy="34%" r="50%">
      <stop offset="0" stop-color="#f5b84b" stop-opacity="0.48"/>
      <stop offset="1" stop-color="#f5b84b" stop-opacity="0"/>
    </radialGradient>
    <filter id="shadow" x="-20%" y="-20%" width="140%" height="140%">
      <feDropShadow dx="0" dy="30" stdDeviation="26" flood-color="#000" flood-opacity="0.5"/>
    </filter>
  </defs>
  <rect width="1200" height="760" fill="url(#bg)"/>
  <rect width="1200" height="760" fill="url(#glow)"/>
  <path d="M0 598c154-44 302-66 444-66 239 0 397 71 756 15v213H0z" fill="#050505" opacity="0.55"/>
  <g filter="url(#shadow)">
    <path d="M198 454l74-136c18-32 49-52 85-55l325-29c43-4 86 11 117 40l129 121 88 21c28 7 48 32 48 61v63H159v-37c0-24 16-44 39-49z" fill="url(#body)"/>
    <path d="M357 300l-55 111h202l16-132-142 12c-9 1-17 4-21 9z" fill="#111827"/>
    <path d="M556 276l-16 135h306L759 326c-29-29-71-45-112-41z" fill="#111827"/>
    <path d="M182 487h870v53H182z" fill="#171717"/>
    <circle cx="328" cy="541" r="84" fill="#080808"/>
    <circle cx="328" cy="541" r="43" fill="#4b5563"/>
    <circle cx="851" cy="541" r="84" fill="#080808"/>
    <circle cx="851" cy="541" r="43" fill="#4b5563"/>
    <path d="M193 455h92l-19 34h-98c4-18 13-29 25-34z" fill="#f5b84b"/>
    <path d="M949 425l75 18c17 4 29 19 31 37h-95z" fill="#f5b84b"/>
  </g>
  <path d="M162 642h900" stroke="#f5b84b" stroke-opacity="0.35" stroke-width="2"/>
</svg>
